<?xml version="1.0" encoding="utf-8"?>
<!-- Generated by IcoMoon.io -->
<!DOCTYPE svg PUBLIC "-//W3C//DTD SVG 1.1//EN" "http://www.w3.org/Graphics/SVG/1.1/DTD/svg11.dtd">
<svg version="1.1" xmlns="http://www.w3.org/2000/svg" xmlns:xlink="http://www.w3.org/1999/xlink" width="19" height="19" viewBox="0 0 19 19">
<g>
</g>
	<path d="M9.5 3.563c-4.144 0-7.735 2.413-9.5 5.938 1.765 3.525 5.356 5.938 9.5 5.938 4.144 0 7.735-2.413 9.5-5.938-1.765-3.525-5.356-5.938-9.5-5.938zM14.184 6.711c1.116 0.712 2.062 1.666 2.773 2.789-0.71 1.123-1.656 2.077-2.773 2.789-1.403 0.895-3.022 1.368-4.684 1.368-1.662 0-3.282-0.473-4.684-1.368-1.116-0.712-2.062-1.666-2.773-2.789 0.71-1.123 1.656-2.077 2.773-2.789 0.073-0.046 0.146-0.091 0.22-0.135-0.185 0.507-0.286 1.054-0.286 1.625 0 2.623 2.127 4.75 4.75 4.75s4.75-2.127 4.75-4.75c0-0.571-0.101-1.118-0.286-1.625 0.074 0.044 0.147 0.089 0.22 0.135zM9.5 7.607c0 0.984-0.797 1.781-1.781 1.781s-1.781-0.797-1.781-1.781 0.797-1.781 1.781-1.781 1.781 0.797 1.781 1.781z" fill="#ffffff"></path>
</svg>
