<?xml version="1.0" encoding="utf-8"?>
<!-- Generator: Adobe Illustrator 15.0.0, SVG Export Plug-In  -->
<!DOCTYPE svg PUBLIC "-//W3C//DTD SVG 1.1//EN" "http://www.w3.org/Graphics/SVG/1.1/DTD/svg11.dtd" [
	<!ENTITY ns_flows "http://ns.adobe.com/Flows/1.0/">
]>
<svg version="1.1"
	 xmlns="http://www.w3.org/2000/svg" xmlns:xlink="http://www.w3.org/1999/xlink" xmlns:a="http://ns.adobe.com/AdobeSVGViewerExtensions/3.0/"
	 x="0px" y="0px" width="544px" height="134px" viewBox="-7.228 -15.308 544 134"
	 overflow="visible" enable-background="new -7.228 -15.308 544 134" xml:space="preserve">
<defs>
</defs>
<path fill="#8DB3A9" d="M0,91.509l7.198-60.024h0.244c0.325,0,0.528,0.091,0.61,0.274c0.081,0.183,0.122,0.376,0.122,0.58
	L5.551,55.702c1.626-3.782,3.497-7.198,5.612-10.248c2.114-3.05,4.381-5.662,6.801-7.838c2.419-2.175,4.931-3.843,7.534-5.002
	c2.602-1.159,5.205-1.738,7.808-1.738c4.392,0,7.615,1.393,9.669,4.178c2.053,2.786,3.08,6.782,3.08,11.986
	c0,0.936-0.041,1.922-0.122,2.958c-0.082,1.037-0.183,2.105-0.305,3.203l-4.514,38.308h-1.342l4.514-38.308
	c0.122-1.057,0.223-2.094,0.305-3.111c0.081-1.016,0.122-1.992,0.122-2.928c0-4.798-0.915-8.509-2.745-11.132
	s-4.758-3.935-8.784-3.935c-2.522,0-5.074,0.621-7.656,1.86c-2.583,1.241-5.084,3.01-7.503,5.307
	c-2.42,2.298-4.718,5.084-6.893,8.357c-2.176,3.274-4.138,6.945-5.886,11.011L1.342,91.509H0z"/>
<path fill="#8DB3A9" d="M102.723,41.855c0,1.586-0.213,3.101-0.64,4.544c-0.427,1.444-1.2,2.816-2.318,4.117
	c-1.119,1.302-2.674,2.522-4.667,3.66c-1.993,1.139-4.544,2.207-7.655,3.203c-3.111,0.997-6.862,1.912-11.254,2.745
	c-4.392,0.834-9.557,1.576-15.494,2.226c-0.366,2.4-0.549,4.758-0.549,7.076c0,3.335,0.386,6.334,1.159,8.998
	c0.772,2.664,1.922,4.932,3.447,6.801c1.525,1.871,3.436,3.305,5.734,4.301c2.297,0.997,4.992,1.495,8.083,1.495
	c2.318,0,4.422-0.275,6.313-0.824s3.588-1.229,5.093-2.043c1.504-0.813,2.837-1.687,3.996-2.623
	c1.159-0.935,2.155-1.809,2.989-2.623c0.833-0.813,1.534-1.495,2.104-2.043c0.569-0.549,1.016-0.823,1.342-0.823
	c0.122,0,0.223,0.01,0.305,0.03c0.081,0.021,0.223,0.132,0.427,0.335c-1.912,2.074-3.772,3.854-5.582,5.337
	c-1.81,1.485-3.629,2.715-5.459,3.69c-1.83,0.976-3.701,1.688-5.612,2.135c-1.912,0.447-3.925,0.671-6.039,0.671
	c-3.254,0-6.11-0.529-8.57-1.586c-2.461-1.057-4.514-2.562-6.161-4.514c-1.647-1.952-2.877-4.34-3.69-7.167
	c-0.814-2.826-1.22-6.008-1.22-9.546c0-2.928,0.284-5.926,0.854-8.998c0.569-3.07,1.423-6.028,2.562-8.875
	c1.138-2.846,2.541-5.53,4.209-8.052c1.667-2.521,3.589-4.717,5.765-6.588c2.175-1.87,4.595-3.344,7.259-4.422
	c2.663-1.077,5.582-1.616,8.754-1.616c2.846,0,5.205,0.387,7.076,1.159c1.87,0.773,3.355,1.729,4.453,2.867
	c1.098,1.139,1.87,2.339,2.318,3.599C102.499,39.761,102.723,40.879,102.723,41.855z M88.205,32.095
	c-3.864,0-7.331,0.834-10.401,2.501c-3.071,1.668-5.755,3.864-8.052,6.588c-2.298,2.725-4.189,5.826-5.673,9.303
	c-1.485,3.477-2.553,7.025-3.203,10.645c6.018-0.65,11.203-1.393,15.555-2.227c4.351-0.833,8.031-1.738,11.041-2.714
	c3.009-0.976,5.439-2.022,7.29-3.142c1.85-1.118,3.284-2.288,4.301-3.507c1.016-1.22,1.697-2.471,2.043-3.752
	c0.345-1.281,0.519-2.592,0.519-3.934c0-0.976-0.234-2.033-0.702-3.172c-0.468-1.138-1.22-2.196-2.257-3.172
	c-1.037-0.976-2.42-1.789-4.148-2.44C92.79,32.421,90.685,32.095,88.205,32.095z"/>
<path fill="#8DB3A9" d="M112.483,31.729h0.61c0.528,0,0.854,0.285,0.976,0.854l10.248,54.778c0.081,0.448,0.142,0.864,0.183,1.25
	c0.04,0.387,0.081,0.803,0.122,1.25c0.284-0.772,0.63-1.606,1.037-2.501l24.278-55.388c0.122-0.406,0.366-0.61,0.732-0.61h0.244
	c0.203,0,0.325,0.051,0.366,0.152c0.04,0.102,0.081,0.254,0.122,0.458l10.736,55.388c0.081,0.448,0.162,0.884,0.244,1.312
	c0.081,0.427,0.142,0.844,0.183,1.25c0.162-0.366,0.325-0.772,0.488-1.22c0.162-0.447,0.345-0.894,0.549-1.342l23.546-54.778
	c0.284-0.569,0.65-0.854,1.098-0.854h0.732l-26.108,59.78h-0.61c-0.326,0-0.529-0.203-0.61-0.61l-10.858-55.632
	c-0.082-0.325-0.132-0.63-0.152-0.915c-0.021-0.284-0.051-0.589-0.091-0.915c-0.204,0.61-0.448,1.22-0.732,1.83l-24.644,55.632
	c-0.204,0.407-0.427,0.61-0.671,0.61h-0.549L112.483,31.729z"/>
<path fill="#B56C63" d="M294.235,49.265c0,6.333-1.002,12.095-3.008,17.287s-4.838,9.637-8.496,13.334
	c-3.658,3.698-8.045,6.559-13.158,8.584c-5.113,2.026-10.777,3.039-16.992,3.039h-31.624V6.962h31.624
	c6.214,0,11.878,1.013,16.992,3.039c5.113,2.026,9.5,4.897,13.158,8.614s6.49,8.171,8.496,13.364
	C293.233,37.17,294.235,42.933,294.235,49.265z M282.495,49.265c0-5.192-0.709-9.833-2.125-13.924
	c-1.416-4.09-3.422-7.552-6.018-10.384c-2.596-2.832-5.742-4.995-9.439-6.49c-3.697-1.494-7.809-2.242-12.332-2.242h-20.118v66.021
	h20.118c4.523,0,8.634-0.747,12.332-2.242c3.697-1.495,6.844-3.648,9.439-6.46c2.596-2.812,4.602-6.263,6.018-10.354
	C281.786,59.099,282.495,54.457,282.495,49.265z"/>
<path fill="#B56C63" d="M352.054,91.509h-4.66c-1.023,0-1.85-0.157-2.479-0.472c-0.629-0.314-1.043-0.982-1.238-2.006l-1.18-5.546
	c-1.574,1.416-3.107,2.685-4.604,3.806c-1.494,1.121-3.066,2.065-4.719,2.832c-1.652,0.767-3.414,1.348-5.281,1.741
	c-1.869,0.393-3.943,0.59-6.225,0.59c-2.32,0-4.494-0.326-6.52-0.976c-2.025-0.651-3.785-1.628-5.279-2.931
	c-1.496-1.303-2.686-2.951-3.57-4.944c-0.885-1.993-1.328-4.352-1.328-7.075c0-2.367,0.65-4.647,1.947-6.837
	c1.299-2.19,3.393-4.135,6.283-5.832c2.893-1.697,6.678-3.088,11.357-4.174c4.682-1.085,10.404-1.628,17.17-1.628v-4.69
	c0-4.67-0.994-8.202-2.98-10.597s-4.926-3.593-8.82-3.593c-2.557,0-4.711,0.325-6.459,0.974c-1.752,0.649-3.266,1.377-4.543,2.183
	c-1.279,0.807-2.381,1.534-3.305,2.183s-1.84,0.974-2.744,0.974c-0.707,0-1.326-0.186-1.857-0.561
	c-0.531-0.374-0.955-0.835-1.27-1.386l-1.887-3.363c3.303-3.186,6.863-5.565,10.678-7.139c3.814-1.572,8.043-2.36,12.686-2.36
	c3.342,0,6.312,0.551,8.908,1.652c2.598,1.102,4.779,2.635,6.549,4.602c1.771,1.967,3.107,4.347,4.014,7.139
	c0.904,2.793,1.355,5.861,1.355,9.204V91.509z M324.796,85.078c1.85,0,3.541-0.186,5.074-0.561c1.535-0.373,2.98-0.904,4.336-1.593
	c1.357-0.688,2.656-1.524,3.895-2.507c1.24-0.983,2.449-2.104,3.629-3.363V64.723c-4.838,0-8.949,0.307-12.332,0.92
	c-3.383,0.614-6.135,1.416-8.26,2.404c-2.123,0.989-3.668,2.156-4.631,3.501c-0.965,1.346-1.445,2.849-1.445,4.51
	c0,1.583,0.256,2.948,0.768,4.095c0.51,1.147,1.199,2.087,2.064,2.819s1.889,1.267,3.068,1.603
	C322.142,84.91,323.419,85.078,324.796,85.078z"/>
<path fill="#B56C63" d="M386.095,92.453c-4.719,0-8.348-1.317-10.885-3.953c-2.537-2.635-3.805-6.431-3.805-11.387v-36.58h-7.199
	c-0.629,0-1.16-0.186-1.592-0.561c-0.434-0.373-0.65-0.953-0.65-1.74v-4.189l9.795-1.239l2.418-18.467
	c0.08-0.59,0.334-1.071,0.768-1.446c0.434-0.373,0.982-0.561,1.652-0.561h5.311v20.591h17.109v7.611h-17.109v35.872
	c0,2.518,0.609,4.386,1.828,5.605c1.219,1.22,2.793,1.829,4.721,1.829c1.1,0,2.055-0.147,2.861-0.442
	c0.805-0.295,1.504-0.62,2.094-0.974s1.092-0.679,1.506-0.974c0.412-0.295,0.775-0.442,1.09-0.442c0.551,0,1.043,0.334,1.477,1.003
	l3.066,5.015c-1.809,1.691-3.992,3.019-6.549,3.982S388.81,92.453,386.095,92.453z"/>
<path fill="#B56C63" d="M435.655,30.798c3.578,0,6.881,0.6,9.91,1.799c3.029,1.2,5.645,2.931,7.848,5.192
	c2.203,2.263,3.924,5.055,5.162,8.378c1.24,3.324,1.859,7.109,1.859,11.357c0,1.652-0.178,2.753-0.531,3.304
	c-0.354,0.551-1.023,0.826-2.006,0.826h-39.766c0.078,3.776,0.59,7.061,1.533,9.853c0.943,2.793,2.242,5.124,3.895,6.992
	c1.652,1.869,3.617,3.265,5.9,4.189c2.279,0.924,4.838,1.386,7.67,1.386c2.635,0,4.906-0.304,6.814-0.915
	c1.906-0.609,3.549-1.269,4.926-1.977s2.527-1.366,3.451-1.976c0.924-0.609,1.721-0.915,2.391-0.915
	c0.863,0,1.533,0.334,2.006,1.003l2.949,3.835c-1.297,1.574-2.852,2.941-4.66,4.101c-1.811,1.161-3.746,2.115-5.812,2.861
	c-2.064,0.748-4.199,1.308-6.4,1.682c-2.203,0.373-4.387,0.561-6.549,0.561c-4.131,0-7.936-0.699-11.418-2.095
	c-3.48-1.396-6.49-3.441-9.025-6.136c-2.537-2.694-4.514-6.027-5.93-10c-1.416-3.973-2.125-8.535-2.125-13.688
	c0-4.169,0.639-8.063,1.918-11.682c1.277-3.619,3.117-6.755,5.516-9.411c2.398-2.655,5.33-4.739,8.791-6.254
	C427.433,31.556,431.327,30.798,435.655,30.798z M435.89,38.527c-5.074,0-9.066,1.466-11.977,4.396
	c-2.91,2.931-4.721,6.991-5.428,12.184h32.51c0-2.438-0.336-4.67-1.004-6.697c-0.67-2.025-1.652-3.776-2.949-5.251
	c-1.299-1.475-2.883-2.615-4.75-3.422C440.423,38.931,438.29,38.527,435.89,38.527z"/>
<path fill="#B56C63" d="M482.263,54.398c0,8.417,1.082,16.589,3.244,24.514c2.164,7.926,5.291,15.488,9.381,22.686
	c0.236,0.433,0.393,0.806,0.473,1.121c0.078,0.314,0.117,0.629,0.117,0.944c0,0.551-0.137,1.003-0.412,1.357
	s-0.629,0.668-1.062,0.944l-4.66,2.832c-2.951-4.524-5.457-9.008-7.523-13.452c-2.064-4.444-3.736-8.909-5.014-13.393
	c-1.279-4.484-2.213-8.998-2.803-13.541s-0.885-9.213-0.885-14.012c0-4.759,0.295-9.42,0.885-13.983
	c0.59-4.562,1.523-9.076,2.803-13.54c1.277-4.464,2.949-8.918,5.014-13.364c2.066-4.444,4.572-8.948,7.523-13.511l4.66,2.891
	c0.434,0.276,0.787,0.59,1.062,0.944s0.412,0.807,0.412,1.357c0,0.59-0.197,1.259-0.59,2.006c-4.129,7.159-7.266,14.711-9.41,22.656
	C483.333,37.799,482.263,45.981,482.263,54.398z"/>
<path fill="#B56C63" d="M518.192,54.398c0-8.417-1.072-16.599-3.217-24.544c-2.143-7.945-5.279-15.497-9.41-22.656
	c-0.393-0.747-0.59-1.416-0.59-2.006c0-0.55,0.137-1.003,0.414-1.357c0.273-0.354,0.629-0.668,1.061-0.944L511.112,0
	c2.949,4.563,5.457,9.066,7.521,13.511c2.066,4.445,3.736,8.9,5.016,13.364c1.277,4.464,2.213,8.978,2.803,13.54
	c0.59,4.563,0.885,9.225,0.885,13.983c0,4.799-0.295,9.469-0.885,14.012s-1.525,9.057-2.803,13.541
	c-1.279,4.484-2.949,8.949-5.016,13.393c-2.064,4.444-4.572,8.928-7.521,13.452l-4.662-2.832c-0.432-0.276-0.787-0.59-1.061-0.944
	c-0.277-0.354-0.414-0.807-0.414-1.357c0-0.315,0.039-0.629,0.119-0.944c0.078-0.315,0.234-0.688,0.471-1.121
	c4.09-7.198,7.219-14.759,9.381-22.686C517.11,70.987,518.192,62.815,518.192,54.398z"/>
</svg>
